<svg width="52" height="37" viewBox="0 0 52 37" fill="none" xmlns="http://www.w3.org/2000/svg">
<mask id="path-1-inside-1_1_4" fill="white">
<path d="M2.12216 14H0.460227L5.26705 0.909091H6.90341L11.7102 14H10.0483L6.13636 2.98011H6.03409L2.12216 14ZM2.7358 8.88636H9.43466V10.2926H2.7358V8.88636ZM15.5933 8.09375V14H14.0847V4.18182H15.5421V5.71591H15.67C15.9001 5.21733 16.2495 4.81676 16.7183 4.5142C17.187 4.20739 17.7921 4.05398 18.5336 4.05398C19.1984 4.05398 19.7801 4.19034 20.2786 4.46307C20.7772 4.73153 21.165 5.14062 21.442 5.69034C21.719 6.2358 21.8575 6.92614 21.8575 7.76136V14H20.3489V7.86364C20.3489 7.09233 20.1487 6.49148 19.7481 6.06108C19.3475 5.62642 18.7978 5.40909 18.0989 5.40909C17.6174 5.40909 17.187 5.51349 16.8078 5.7223C16.4328 5.93111 16.1366 6.2358 15.9193 6.63636C15.7019 7.03693 15.5933 7.52273 15.5933 8.09375ZM25.154 14V4.18182H26.6626V14H25.154ZM25.9211 2.54545C25.6271 2.54545 25.3735 2.44531 25.1604 2.24503C24.9516 2.04474 24.8472 1.80398 24.8472 1.52273C24.8472 1.24148 24.9516 1.00071 25.1604 0.800426C25.3735 0.600142 25.6271 0.5 25.9211 0.5C26.2151 0.5 26.4665 0.600142 26.6753 0.800426C26.8884 1.00071 26.995 1.24148 26.995 1.52273C26.995 1.80398 26.8884 2.04474 26.6753 2.24503C26.4665 2.44531 26.2151 2.54545 25.9211 2.54545ZM1.58523 22.9091H3.47727L7.92614 33.7756H8.07955L12.5284 22.9091H14.4205V36H12.9375V26.054H12.8097L8.71875 36H7.28693L3.19602 26.054H3.06818V36H1.58523V22.9091ZM20.8236 36.2301C20.2014 36.2301 19.6368 36.1129 19.1297 35.8786C18.6226 35.6399 18.2199 35.2969 17.9216 34.8494C17.6233 34.3977 17.4741 33.8523 17.4741 33.2131C17.4741 32.6506 17.5849 32.1946 17.8065 31.8452C18.0281 31.4915 18.3243 31.2145 18.695 31.0142C19.0657 30.8139 19.4748 30.6648 19.9223 30.5668C20.374 30.4645 20.8278 30.3835 21.2838 30.3239C21.8804 30.2472 22.364 30.1896 22.7348 30.1513C23.1098 30.1087 23.3825 30.0384 23.553 29.9403C23.7277 29.8423 23.815 29.6719 23.815 29.429V29.3778C23.815 28.7472 23.6425 28.2571 23.2973 27.9077C22.9564 27.5582 22.4386 27.3835 21.744 27.3835C21.0238 27.3835 20.4592 27.5412 20.0501 27.8565C19.641 28.1719 19.3534 28.5085 19.1872 28.8665L17.7554 28.3551C18.0111 27.7585 18.352 27.294 18.7781 26.9616C19.2085 26.625 19.6773 26.3906 20.1844 26.2585C20.6957 26.1222 21.1986 26.054 21.6929 26.054C22.0082 26.054 22.3704 26.0923 22.7795 26.169C23.1929 26.2415 23.5913 26.3928 23.9748 26.6229C24.3626 26.853 24.6844 27.2003 24.94 27.6648C25.1957 28.1293 25.3236 28.7514 25.3236 29.5312V36H23.815V34.6705H23.7383C23.6361 34.8835 23.4656 35.1115 23.227 35.3544C22.9883 35.5973 22.6709 35.804 22.2746 35.9744C21.8782 36.1449 21.3946 36.2301 20.8236 36.2301ZM21.0537 34.875C21.6503 34.875 22.1531 34.7578 22.5622 34.5234C22.9755 34.2891 23.2866 33.9865 23.4954 33.6158C23.7085 33.245 23.815 32.8551 23.815 32.446V31.0653C23.7511 31.142 23.6105 31.2124 23.3932 31.2763C23.1801 31.3359 22.9329 31.3892 22.6517 31.4361C22.3747 31.4787 22.1041 31.517 21.8399 31.5511C21.58 31.581 21.369 31.6065 21.2071 31.6278C20.815 31.679 20.4486 31.7621 20.1077 31.8771C19.771 31.9879 19.4983 32.1562 19.2895 32.3821C19.0849 32.6037 18.9827 32.9062 18.9827 33.2898C18.9827 33.8139 19.1765 34.2102 19.5643 34.4787C19.9564 34.7429 20.4528 34.875 21.0537 34.875ZM30.1255 30.0938V36H28.6169V26.1818H30.0743V27.7159H30.2022C30.4323 27.2173 30.7817 26.8168 31.2505 26.5142C31.7192 26.2074 32.3243 26.054 33.0658 26.054C33.7306 26.054 34.3122 26.1903 34.8108 26.4631C35.3094 26.7315 35.6972 27.1406 35.9742 27.6903C36.2512 28.2358 36.3897 28.9261 36.3897 29.7614V36H34.8811V29.8636C34.8811 29.0923 34.6809 28.4915 34.2803 28.0611C33.8797 27.6264 33.33 27.4091 32.6311 27.4091C32.1496 27.4091 31.7192 27.5135 31.3399 27.7223C30.9649 27.9311 30.6688 28.2358 30.4514 28.6364C30.2341 29.0369 30.1255 29.5227 30.1255 30.0938ZM39.6862 36V26.1818H41.1948V36H39.6862ZM40.4533 24.5455C40.1592 24.5455 39.9057 24.4453 39.6926 24.245C39.4838 24.0447 39.3794 23.804 39.3794 23.5227C39.3794 23.2415 39.4838 23.0007 39.6926 22.8004C39.9057 22.6001 40.1592 22.5 40.4533 22.5C40.7473 22.5 40.9987 22.6001 41.2075 22.8004C41.4206 23.0007 41.5271 23.2415 41.5271 23.5227C41.5271 23.804 41.4206 24.0447 41.2075 24.245C40.9987 24.4453 40.7473 24.5455 40.4533 24.5455ZM47.3869 36.2301C46.7648 36.2301 46.2001 36.1129 45.693 35.8786C45.1859 35.6399 44.7832 35.2969 44.4849 34.8494C44.1866 34.3977 44.0375 33.8523 44.0375 33.2131C44.0375 32.6506 44.1483 32.1946 44.3699 31.8452C44.5915 31.4915 44.8876 31.2145 45.2584 31.0142C45.6291 30.8139 46.0382 30.6648 46.4856 30.5668C46.9373 30.4645 47.3912 30.3835 47.8471 30.3239C48.4437 30.2472 48.9274 30.1896 49.2981 30.1513C49.6731 30.1087 49.9459 30.0384 50.1163 29.9403C50.291 29.8423 50.3784 29.6719 50.3784 29.429V29.3778C50.3784 28.7472 50.2058 28.2571 49.8606 27.9077C49.5197 27.5582 49.002 27.3835 48.3074 27.3835C47.5872 27.3835 47.0226 27.5412 46.6135 27.8565C46.2044 28.1719 45.9167 28.5085 45.7506 28.8665L44.3187 28.3551C44.5744 27.7585 44.9153 27.294 45.3415 26.9616C45.7719 26.625 46.2406 26.3906 46.7477 26.2585C47.2591 26.1222 47.7619 26.054 48.2562 26.054C48.5716 26.054 48.9338 26.0923 49.3429 26.169C49.7562 26.2415 50.1547 26.3928 50.5382 26.6229C50.926 26.853 51.2477 27.2003 51.5034 27.6648C51.7591 28.1293 51.8869 28.7514 51.8869 29.5312V36H50.3784V34.6705H50.3017C50.1994 34.8835 50.029 35.1115 49.7903 35.3544C49.5517 35.5973 49.2342 35.804 48.8379 35.9744C48.4416 36.1449 47.9579 36.2301 47.3869 36.2301ZM47.617 34.875C48.2136 34.875 48.7165 34.7578 49.1256 34.5234C49.5389 34.2891 49.85 33.9865 50.0588 33.6158C50.2719 33.245 50.3784 32.8551 50.3784 32.446V31.0653C50.3145 31.142 50.1738 31.2124 49.9565 31.2763C49.7435 31.3359 49.4963 31.3892 49.215 31.4361C48.9381 31.4787 48.6675 31.517 48.4033 31.5511C48.1433 31.581 47.9324 31.6065 47.7704 31.6278C47.3784 31.679 47.0119 31.7621 46.671 31.8771C46.3344 31.9879 46.0616 32.1562 45.8528 32.3821C45.6483 32.6037 45.546 32.9062 45.546 33.2898C45.546 33.8139 45.7399 34.2102 46.1277 34.4787C46.5197 34.7429 47.0162 34.875 47.617 34.875Z"/>
</mask>
<path d="M2.12216 14H0.460227L5.26705 0.909091H6.90341L11.7102 14H10.0483L6.13636 2.98011H6.03409L2.12216 14ZM2.7358 8.88636H9.43466V10.2926H2.7358V8.88636ZM15.5933 8.09375V14H14.0847V4.18182H15.5421V5.71591H15.67C15.9001 5.21733 16.2495 4.81676 16.7183 4.5142C17.187 4.20739 17.7921 4.05398 18.5336 4.05398C19.1984 4.05398 19.7801 4.19034 20.2786 4.46307C20.7772 4.73153 21.165 5.14062 21.442 5.69034C21.719 6.2358 21.8575 6.92614 21.8575 7.76136V14H20.3489V7.86364C20.3489 7.09233 20.1487 6.49148 19.7481 6.06108C19.3475 5.62642 18.7978 5.40909 18.0989 5.40909C17.6174 5.40909 17.187 5.51349 16.8078 5.7223C16.4328 5.93111 16.1366 6.2358 15.9193 6.63636C15.7019 7.03693 15.5933 7.52273 15.5933 8.09375ZM25.154 14V4.18182H26.6626V14H25.154ZM25.9211 2.54545C25.6271 2.54545 25.3735 2.44531 25.1604 2.24503C24.9516 2.04474 24.8472 1.80398 24.8472 1.52273C24.8472 1.24148 24.9516 1.00071 25.1604 0.800426C25.3735 0.600142 25.6271 0.5 25.9211 0.5C26.2151 0.5 26.4665 0.600142 26.6753 0.800426C26.8884 1.00071 26.995 1.24148 26.995 1.52273C26.995 1.80398 26.8884 2.04474 26.6753 2.24503C26.4665 2.44531 26.2151 2.54545 25.9211 2.54545ZM1.58523 22.9091H3.47727L7.92614 33.7756H8.07955L12.5284 22.9091H14.4205V36H12.9375V26.054H12.8097L8.71875 36H7.28693L3.19602 26.054H3.06818V36H1.58523V22.9091ZM20.8236 36.2301C20.2014 36.2301 19.6368 36.1129 19.1297 35.8786C18.6226 35.6399 18.2199 35.2969 17.9216 34.8494C17.6233 34.3977 17.4741 33.8523 17.4741 33.2131C17.4741 32.6506 17.5849 32.1946 17.8065 31.8452C18.0281 31.4915 18.3243 31.2145 18.695 31.0142C19.0657 30.8139 19.4748 30.6648 19.9223 30.5668C20.374 30.4645 20.8278 30.3835 21.2838 30.3239C21.8804 30.2472 22.364 30.1896 22.7348 30.1513C23.1098 30.1087 23.3825 30.0384 23.553 29.9403C23.7277 29.8423 23.815 29.6719 23.815 29.429V29.3778C23.815 28.7472 23.6425 28.2571 23.2973 27.9077C22.9564 27.5582 22.4386 27.3835 21.744 27.3835C21.0238 27.3835 20.4592 27.5412 20.0501 27.8565C19.641 28.1719 19.3534 28.5085 19.1872 28.8665L17.7554 28.3551C18.0111 27.7585 18.352 27.294 18.7781 26.9616C19.2085 26.625 19.6773 26.3906 20.1844 26.2585C20.6957 26.1222 21.1986 26.054 21.6929 26.054C22.0082 26.054 22.3704 26.0923 22.7795 26.169C23.1929 26.2415 23.5913 26.3928 23.9748 26.6229C24.3626 26.853 24.6844 27.2003 24.94 27.6648C25.1957 28.1293 25.3236 28.7514 25.3236 29.5312V36H23.815V34.6705H23.7383C23.6361 34.8835 23.4656 35.1115 23.227 35.3544C22.9883 35.5973 22.6709 35.804 22.2746 35.9744C21.8782 36.1449 21.3946 36.2301 20.8236 36.2301ZM21.0537 34.875C21.6503 34.875 22.1531 34.7578 22.5622 34.5234C22.9755 34.2891 23.2866 33.9865 23.4954 33.6158C23.7085 33.245 23.815 32.8551 23.815 32.446V31.0653C23.7511 31.142 23.6105 31.2124 23.3932 31.2763C23.1801 31.3359 22.9329 31.3892 22.6517 31.4361C22.3747 31.4787 22.1041 31.517 21.8399 31.5511C21.58 31.581 21.369 31.6065 21.2071 31.6278C20.815 31.679 20.4486 31.7621 20.1077 31.8771C19.771 31.9879 19.4983 32.1562 19.2895 32.3821C19.0849 32.6037 18.9827 32.9062 18.9827 33.2898C18.9827 33.8139 19.1765 34.2102 19.5643 34.4787C19.9564 34.7429 20.4528 34.875 21.0537 34.875ZM30.1255 30.0938V36H28.6169V26.1818H30.0743V27.7159H30.2022C30.4323 27.2173 30.7817 26.8168 31.2505 26.5142C31.7192 26.2074 32.3243 26.054 33.0658 26.054C33.7306 26.054 34.3122 26.1903 34.8108 26.4631C35.3094 26.7315 35.6972 27.1406 35.9742 27.6903C36.2512 28.2358 36.3897 28.9261 36.3897 29.7614V36H34.8811V29.8636C34.8811 29.0923 34.6809 28.4915 34.2803 28.0611C33.8797 27.6264 33.33 27.4091 32.6311 27.4091C32.1496 27.4091 31.7192 27.5135 31.3399 27.7223C30.9649 27.9311 30.6688 28.2358 30.4514 28.6364C30.2341 29.0369 30.1255 29.5227 30.1255 30.0938ZM39.6862 36V26.1818H41.1948V36H39.6862ZM40.4533 24.5455C40.1592 24.5455 39.9057 24.4453 39.6926 24.245C39.4838 24.0447 39.3794 23.804 39.3794 23.5227C39.3794 23.2415 39.4838 23.0007 39.6926 22.8004C39.9057 22.6001 40.1592 22.5 40.4533 22.5C40.7473 22.5 40.9987 22.6001 41.2075 22.8004C41.4206 23.0007 41.5271 23.2415 41.5271 23.5227C41.5271 23.804 41.4206 24.0447 41.2075 24.245C40.9987 24.4453 40.7473 24.5455 40.4533 24.5455ZM47.3869 36.2301C46.7648 36.2301 46.2001 36.1129 45.693 35.8786C45.1859 35.6399 44.7832 35.2969 44.4849 34.8494C44.1866 34.3977 44.0375 33.8523 44.0375 33.2131C44.0375 32.6506 44.1483 32.1946 44.3699 31.8452C44.5915 31.4915 44.8876 31.2145 45.2584 31.0142C45.6291 30.8139 46.0382 30.6648 46.4856 30.5668C46.9373 30.4645 47.3912 30.3835 47.8471 30.3239C48.4437 30.2472 48.9274 30.1896 49.2981 30.1513C49.6731 30.1087 49.9459 30.0384 50.1163 29.9403C50.291 29.8423 50.3784 29.6719 50.3784 29.429V29.3778C50.3784 28.7472 50.2058 28.2571 49.8606 27.9077C49.5197 27.5582 49.002 27.3835 48.3074 27.3835C47.5872 27.3835 47.0226 27.5412 46.6135 27.8565C46.2044 28.1719 45.9167 28.5085 45.7506 28.8665L44.3187 28.3551C44.5744 27.7585 44.9153 27.294 45.3415 26.9616C45.7719 26.625 46.2406 26.3906 46.7477 26.2585C47.2591 26.1222 47.7619 26.054 48.2562 26.054C48.5716 26.054 48.9338 26.0923 49.3429 26.169C49.7562 26.2415 50.1547 26.3928 50.5382 26.6229C50.926 26.853 51.2477 27.2003 51.5034 27.6648C51.7591 28.1293 51.8869 28.7514 51.8869 29.5312V36H50.3784V34.6705H50.3017C50.1994 34.8835 50.029 35.1115 49.7903 35.3544C49.5517 35.5973 49.2342 35.804 48.8379 35.9744C48.4416 36.1449 47.9579 36.2301 47.3869 36.2301ZM47.617 34.875C48.2136 34.875 48.7165 34.7578 49.1256 34.5234C49.5389 34.2891 49.85 33.9865 50.0588 33.6158C50.2719 33.245 50.3784 32.8551 50.3784 32.446V31.0653C50.3145 31.142 50.1738 31.2124 49.9565 31.2763C49.7435 31.3359 49.4963 31.3892 49.215 31.4361C48.9381 31.4787 48.6675 31.517 48.4033 31.5511C48.1433 31.581 47.9324 31.6065 47.7704 31.6278C47.3784 31.679 47.0119 31.7621 46.671 31.8771C46.3344 31.9879 46.0616 32.1562 45.8528 32.3821C45.6483 32.6037 45.546 32.9062 45.546 33.2898C45.546 33.8139 45.7399 34.2102 46.1277 34.4787C46.5197 34.7429 47.0162 34.875 47.617 34.875Z" fill="#0C0000"/>
<path d="M2.12216 14V15H2.82831L3.06454 14.3345L2.12216 14ZM0.460227 14L-0.478491 13.6553L-0.972243 15H0.460227V14ZM5.26705 0.909091V-0.0909095H4.56895L4.32833 0.564405L5.26705 0.909091ZM6.90341 0.909091L7.84213 0.564405L7.6015 -0.0909095H6.90341V0.909091ZM11.7102 14V15H13.1427L12.6489 13.6553L11.7102 14ZM10.0483 14L9.10591 14.3345L9.34214 15H10.0483V14ZM6.13636 2.98011L7.07875 2.64558L6.84251 1.98011H6.13636V2.98011ZM6.03409 2.98011V1.98011H5.32794L5.09171 2.64558L6.03409 2.98011ZM2.7358 8.88636V7.88636H1.7358V8.88636H2.7358ZM9.43466 8.88636H10.4347V7.88636H9.43466V8.88636ZM9.43466 10.2926V11.2926H10.4347V10.2926H9.43466ZM2.7358 10.2926H1.7358V11.2926H2.7358V10.2926ZM2.12216 13H0.460227V15H2.12216V13ZM1.39895 14.3447L6.20576 1.25378L4.32833 0.564405L-0.478491 13.6553L1.39895 14.3447ZM5.26705 1.90909H6.90341V-0.0909095H5.26705V1.90909ZM5.96469 1.25378L10.7715 14.3447L12.6489 13.6553L7.84213 0.564405L5.96469 1.25378ZM11.7102 13H10.0483V15H11.7102V13ZM10.9907 13.6655L7.07875 2.64558L5.19398 3.31465L9.10591 14.3345L10.9907 13.6655ZM6.13636 1.98011H6.03409V3.98011H6.13636V1.98011ZM5.09171 2.64558L1.17978 13.6655L3.06454 14.3345L6.97647 3.31465L5.09171 2.64558ZM2.7358 9.88636H9.43466V7.88636H2.7358V9.88636ZM8.43466 8.88636V10.2926H10.4347V8.88636H8.43466ZM9.43466 9.29261H2.7358V11.2926H9.43466V9.29261ZM3.7358 10.2926V8.88636H1.7358V10.2926H3.7358ZM15.5933 14V15H16.5933V14H15.5933ZM14.0847 14H13.0847V15H14.0847V14ZM14.0847 4.18182V3.18182H13.0847V4.18182H14.0847ZM15.5421 4.18182H16.5421V3.18182H15.5421V4.18182ZM15.5421 5.71591H14.5421V6.71591H15.5421V5.71591ZM15.67 5.71591V6.71591H16.3098L16.5779 6.13497L15.67 5.71591ZM16.7183 4.5142L17.2606 5.35441L17.2659 5.35091L16.7183 4.5142ZM20.2786 4.46307L19.7987 5.34041L19.8045 5.34354L20.2786 4.46307ZM21.442 5.69034L20.5489 6.14032L20.5504 6.14312L21.442 5.69034ZM21.8575 14V15H22.8575V14H21.8575ZM20.3489 14H19.3489V15H20.3489V14ZM19.7481 6.06108L19.0127 6.73877L19.0161 6.74236L19.7481 6.06108ZM16.8078 5.7223L16.3255 4.84628L16.3213 4.84861L16.8078 5.7223ZM15.9193 6.63636L15.0403 6.15948L15.0403 6.15948L15.9193 6.63636ZM14.5933 8.09375V14H16.5933V8.09375H14.5933ZM15.5933 13H14.0847V15H15.5933V13ZM15.0847 14V4.18182H13.0847V14H15.0847ZM14.0847 5.18182H15.5421V3.18182H14.0847V5.18182ZM14.5421 4.18182V5.71591H16.5421V4.18182H14.5421ZM15.5421 6.71591H15.67V4.71591H15.5421V6.71591ZM16.5779 6.13497C16.7272 5.8115 16.9485 5.55583 17.2606 5.35439L16.176 3.67402C15.5506 4.07769 15.0729 4.62316 14.762 5.29685L16.5779 6.13497ZM17.2659 5.35091C17.527 5.18004 17.925 5.05398 18.5336 5.05398V3.05398C17.6593 3.05398 16.8471 3.23473 16.1706 3.6775L17.2659 5.35091ZM18.5336 5.05398C19.0593 5.05398 19.4705 5.16084 19.7987 5.34039L20.7585 3.58575C20.0896 3.21984 19.3375 3.05398 18.5336 3.05398V5.05398ZM19.8045 5.34354C20.1068 5.50631 20.3558 5.75691 20.549 6.14032L22.335 5.24036C21.9742 4.52434 21.4476 3.95676 20.7527 3.5826L19.8045 5.34354ZM20.5504 6.14312C20.7349 6.5066 20.8575 7.02893 20.8575 7.76136H22.8575C22.8575 6.82334 22.703 5.96499 22.3336 5.23756L20.5504 6.14312ZM20.8575 7.76136V14H22.8575V7.76136H20.8575ZM21.8575 13H20.3489V15H21.8575V13ZM21.3489 14V7.86364H19.3489V14H21.3489ZM21.3489 7.86364C21.3489 6.92055 21.1011 6.04707 20.4801 5.37979L19.0161 6.74236C19.1962 6.93588 19.3489 7.26411 19.3489 7.86364H21.3489ZM20.4835 5.3834C19.859 4.70575 19.0217 4.40909 18.0989 4.40909V6.40909C18.5739 6.40909 18.8361 6.54709 19.0127 6.73876L20.4835 5.3834ZM18.0989 4.40909C17.4681 4.40909 16.8685 4.54732 16.3255 4.84629L17.2901 6.59831C17.5055 6.47967 17.7668 6.40909 18.0989 6.40909V4.40909ZM16.3213 4.84861C15.77 5.15555 15.3423 5.60286 15.0403 6.15948L16.7982 7.11325C16.9309 6.86873 17.0955 6.70666 17.2942 6.59599L16.3213 4.84861ZM15.0403 6.15948C14.7259 6.73896 14.5933 7.39755 14.5933 8.09375H16.5933C16.5933 7.6479 16.678 7.3349 16.7982 7.11325L15.0403 6.15948ZM25.154 14H24.154V15H25.154V14ZM25.154 4.18182V3.18182H24.154V4.18182H25.154ZM26.6626 4.18182H27.6626V3.18182H26.6626V4.18182ZM26.6626 14V15H27.6626V14H26.6626ZM25.1604 2.24503L24.4682 2.96675L24.4755 2.97365L25.1604 2.24503ZM25.1604 0.800426L24.4755 0.0717604L24.4682 0.0787447L25.1604 0.800426ZM26.6753 0.800426L25.9831 1.52214L25.9904 1.52905L26.6753 0.800426ZM26.6753 2.24503L25.9904 1.51636L25.9831 1.52335L26.6753 2.24503ZM26.154 14V4.18182H24.154V14H26.154ZM25.154 5.18182H26.6626V3.18182H25.154V5.18182ZM25.6626 4.18182V14H27.6626V4.18182H25.6626ZM26.6626 13H25.154V15H26.6626V13ZM25.9211 1.54545C25.8899 1.54545 25.8786 1.54062 25.8777 1.54026C25.8769 1.53995 25.8665 1.53626 25.8453 1.5164L24.4755 2.97365C24.8752 3.34933 25.3741 3.54545 25.9211 3.54545V1.54545ZM25.8527 1.52335C25.8428 1.51385 25.839 1.5086 25.8387 1.50822C25.8386 1.50803 25.8406 1.5109 25.843 1.5164C25.8454 1.52196 25.8468 1.52692 25.8474 1.52996C25.848 1.53281 25.8472 1.53089 25.8472 1.52273H23.8472C23.8472 2.08512 24.0691 2.58394 24.4682 2.96671L25.8527 1.52335ZM25.8472 1.52273C25.8472 1.51456 25.848 1.51264 25.8474 1.5155C25.8468 1.51853 25.8454 1.5235 25.843 1.52905C25.8406 1.53456 25.8386 1.53742 25.8387 1.53723C25.839 1.53685 25.8428 1.5316 25.8527 1.52211L24.4682 0.0787447C24.0691 0.461515 23.8472 0.960339 23.8472 1.52273H25.8472ZM25.8453 1.52905C25.8665 1.50919 25.8769 1.50551 25.8777 1.50519C25.8786 1.50484 25.8899 1.5 25.9211 1.5V-0.5C25.3741 -0.5 24.8752 -0.303876 24.4755 0.0717975L25.8453 1.52905ZM25.9211 1.5C25.9377 1.5 25.9479 1.50139 25.953 1.50234C25.958 1.50325 25.96 1.50406 25.9601 1.50413C25.9603 1.50418 25.9614 1.50459 25.9641 1.50637C25.967 1.50822 25.9734 1.51278 25.9831 1.52211L27.3676 0.0787436C26.9692 -0.303348 26.4685 -0.5 25.9211 -0.5V1.5ZM25.9904 1.52905C26.0011 1.53904 26.0051 1.54459 26.0054 1.545C26.0056 1.54522 26.0033 1.54205 26.0006 1.53585C25.9978 1.52959 25.996 1.52363 25.9952 1.51934C25.9943 1.51524 25.995 1.51585 25.995 1.52273H27.995C27.995 0.953414 27.7654 0.45262 27.3603 0.0717985L25.9904 1.52905ZM25.995 1.52273C25.995 1.5296 25.9943 1.53022 25.9952 1.52611C25.996 1.52183 25.9978 1.51587 26.0006 1.5096C26.0033 1.5034 26.0056 1.50023 26.0054 1.50045C26.0051 1.50087 26.0011 1.50642 25.9904 1.5164L27.3603 2.97366C27.7654 2.59284 27.995 2.09204 27.995 1.52273H25.995ZM25.9831 1.52335C25.9734 1.53267 25.967 1.53723 25.9641 1.53909C25.9614 1.54086 25.9603 1.54127 25.9601 1.54133C25.96 1.5414 25.958 1.5422 25.953 1.54312C25.9479 1.54406 25.9377 1.54545 25.9211 1.54545V3.54545C26.4685 3.54545 26.9692 3.3488 27.3676 2.96671L25.9831 1.52335ZM1.58523 22.9091V21.9091H0.585227V22.9091H1.58523ZM3.47727 22.9091L4.40272 22.5302L4.14842 21.9091H3.47727V22.9091ZM7.92614 33.7756L7.00069 34.1545L7.25498 34.7756H7.92614V33.7756ZM8.07955 33.7756V34.7756H8.7507L9.00499 34.1545L8.07955 33.7756ZM12.5284 22.9091V21.9091H11.8573L11.603 22.5302L12.5284 22.9091ZM14.4205 22.9091H15.4205V21.9091H14.4205V22.9091ZM14.4205 36V37H15.4205V36H14.4205ZM12.9375 36H11.9375V37H12.9375V36ZM12.9375 26.054H13.9375V25.054H12.9375V26.054ZM12.8097 26.054V25.054H12.1397L11.8848 25.6736L12.8097 26.054ZM8.71875 36V37H9.38872L9.64358 36.3804L8.71875 36ZM7.28693 36L6.36211 36.3804L6.61696 37H7.28693V36ZM3.19602 26.054L4.12085 25.6736L3.866 25.054H3.19602V26.054ZM3.06818 26.054V25.054H2.06818V26.054H3.06818ZM3.06818 36V37H4.06818V36H3.06818ZM1.58523 36H0.585227V37H1.58523V36ZM1.58523 23.9091H3.47727V21.9091H1.58523V23.9091ZM2.55183 23.288L7.00069 34.1545L8.85158 33.3967L4.40272 22.5302L2.55183 23.288ZM7.92614 34.7756H8.07955V32.7756H7.92614V34.7756ZM9.00499 34.1545L13.4539 23.288L11.603 22.5302L7.1541 33.3967L9.00499 34.1545ZM12.5284 23.9091H14.4205V21.9091H12.5284V23.9091ZM13.4205 22.9091V36H15.4205V22.9091H13.4205ZM14.4205 35H12.9375V37H14.4205V35ZM13.9375 36V26.054H11.9375V36H13.9375ZM12.9375 25.054H12.8097V27.054H12.9375V25.054ZM11.8848 25.6736L7.79392 35.6196L9.64358 36.3804L13.7345 26.4344L11.8848 25.6736ZM8.71875 35H7.28693V37H8.71875V35ZM8.21176 35.6196L4.12085 25.6736L2.2712 26.4344L6.36211 36.3804L8.21176 35.6196ZM3.19602 25.054H3.06818V27.054H3.19602V25.054ZM2.06818 26.054V36H4.06818V26.054H2.06818ZM3.06818 35H1.58523V37H3.06818V35ZM2.58523 36V22.9091H0.585227V36H2.58523ZM19.1297 35.8786L18.7039 36.7834L18.7101 36.7863L19.1297 35.8786ZM17.9216 34.8494L17.0871 35.4005L17.0895 35.4041L17.9216 34.8494ZM17.8065 31.8452L18.651 32.3807L18.6539 32.3761L17.8065 31.8452ZM19.9223 30.5668L20.1363 31.5436L20.1431 31.5421L19.9223 30.5668ZM21.2838 30.3239L21.1563 29.332L21.1541 29.3323L21.2838 30.3239ZM22.7348 30.1513L22.8377 31.146L22.8477 31.1449L22.7348 30.1513ZM23.553 29.9403L23.0637 29.0681L23.0545 29.0734L23.553 29.9403ZM23.2973 27.9077L22.5815 28.606L22.5858 28.6104L23.2973 27.9077ZM20.0501 27.8565L20.6606 28.6485L20.6606 28.6485L20.0501 27.8565ZM19.1872 28.8665L18.8509 29.8082L19.71 30.1151L20.0942 29.2876L19.1872 28.8665ZM17.7554 28.3551L16.8362 27.9612L16.4172 28.939L17.419 29.2969L17.7554 28.3551ZM18.7781 26.9616L19.3931 27.7502L19.3942 27.7493L18.7781 26.9616ZM20.1844 26.2585L20.4364 27.2262L20.442 27.2248L20.1844 26.2585ZM22.7795 26.169L22.5952 27.152L22.6069 27.154L22.7795 26.169ZM23.9748 26.6229L23.4603 27.4804L23.4645 27.4829L23.9748 26.6229ZM24.94 27.6648L24.064 28.147L24.064 28.147L24.94 27.6648ZM25.3236 36V37H26.3236V36H25.3236ZM23.815 36H22.815V37H23.815V36ZM23.815 34.6705H24.815V33.6705H23.815V34.6705ZM23.7383 34.6705V33.6705H23.1091L22.8368 34.2377L23.7383 34.6705ZM23.227 35.3544L23.9403 36.0552L23.9403 36.0552L23.227 35.3544ZM22.2746 35.9744L21.8794 35.0558L22.2746 35.9744ZM22.5622 34.5234L22.069 33.6535L22.0651 33.6558L22.5622 34.5234ZM23.4954 33.6158L22.6284 33.1175L22.6241 33.125L23.4954 33.6158ZM23.815 31.0653H24.815V28.3033L23.0468 30.4252L23.815 31.0653ZM23.3932 31.2763L23.6628 32.2393L23.6753 32.2356L23.3932 31.2763ZM22.6517 31.4361L22.8038 32.4245L22.8161 32.4225L22.6517 31.4361ZM21.8399 31.5511L21.9539 32.5447L21.9679 32.5429L21.8399 31.5511ZM21.2071 31.6278L21.3364 32.6194L21.3375 32.6193L21.2071 31.6278ZM20.1077 31.8771L20.4203 32.827L20.4274 32.8246L20.1077 31.8771ZM19.2895 32.3821L18.5552 31.7032L18.5547 31.7038L19.2895 32.3821ZM19.5643 34.4787L18.9951 35.3009L19.0055 35.308L19.5643 34.4787ZM20.8236 35.2301C20.3297 35.2301 19.9105 35.1378 19.5492 34.9708L18.7101 36.7863C19.363 37.088 20.0731 37.2301 20.8236 37.2301V35.2301ZM19.5555 34.9737C19.2059 34.8092 18.9465 34.5841 18.7536 34.2947L17.0895 35.4041C17.4932 36.0096 18.0393 36.4706 18.7039 36.7834L19.5555 34.9737ZM18.756 34.2984C18.584 34.0379 18.4741 33.6924 18.4741 33.2131H16.4741C16.4741 34.0121 16.6625 34.7576 17.0871 35.4005L18.756 34.2984ZM18.4741 33.2131C18.4741 32.7742 18.5614 32.5221 18.651 32.3807L16.962 31.3096C16.6085 31.8671 16.4741 32.5269 16.4741 33.2131H18.4741ZM18.6539 32.3761C18.7828 32.1704 18.9502 32.013 19.1703 31.894L18.2197 30.1344C17.6984 30.416 17.2734 30.8126 16.9591 31.3143L18.6539 32.3761ZM19.1703 31.894C19.4521 31.7418 19.7721 31.6234 20.1363 31.5436L19.7083 29.5899C19.1775 29.7062 18.6794 29.886 18.2197 30.1344L19.1703 31.894ZM20.1431 31.5421C20.5649 31.4466 20.9884 31.371 21.4135 31.3154L21.1541 29.3323C20.6673 29.396 20.183 29.4824 19.7015 29.5914L20.1431 31.5421ZM21.4113 31.3157C22.004 31.2395 22.4786 31.1831 22.8377 31.146L22.6319 29.1566C22.2495 29.1961 21.7567 29.2548 21.1563 29.332L21.4113 31.3157ZM22.8477 31.1449C23.2565 31.0984 23.6977 31.0107 24.0514 30.8072L23.0545 29.0734C23.0729 29.0629 23.0543 29.0767 22.9709 29.0982C22.8917 29.1187 22.7777 29.14 22.6219 29.1577L22.8477 31.1449ZM24.0422 30.8125C24.6044 30.4971 24.815 29.9426 24.815 29.429H22.815C22.815 29.4332 22.8141 29.3716 22.8596 29.2829C22.9099 29.1848 22.9878 29.1108 23.0637 29.0682L24.0422 30.8125ZM24.815 29.429V29.3778H22.815V29.429H24.815ZM24.815 29.3778C24.815 28.5621 24.5872 27.7906 24.0087 27.2049L22.5858 28.6104C22.6977 28.7236 22.815 28.9322 22.815 29.3778H24.815ZM24.0131 27.2093C23.4163 26.5977 22.5927 26.3835 21.744 26.3835V28.3835C22.2845 28.3835 22.4964 28.5188 22.5815 28.606L24.0131 27.2093ZM21.744 26.3835C20.8883 26.3835 20.081 26.5701 19.4396 27.0645L20.6606 28.6485C20.8374 28.5123 21.1593 28.3835 21.744 28.3835V26.3835ZM19.4396 27.0645C18.9412 27.4487 18.5316 27.9038 18.2802 28.4454L20.0942 29.2876C20.1752 29.1132 20.3408 28.8951 20.6606 28.6485L19.4396 27.0645ZM19.5235 27.9247L18.0917 27.4134L17.419 29.2969L18.8509 29.8082L19.5235 27.9247ZM18.6745 28.749C18.8771 28.2764 19.1244 27.9598 19.3931 27.7502L18.1631 26.1731C17.5796 26.6283 17.1451 27.2406 16.8362 27.9612L18.6745 28.749ZM19.3942 27.7493C19.7216 27.4933 20.0674 27.3224 20.4364 27.2262L19.9323 25.2908C19.2871 25.4589 18.6954 25.7567 18.162 26.174L19.3942 27.7493ZM20.442 27.2248C20.8752 27.1092 21.2915 27.054 21.6929 27.054V25.054C21.1057 25.054 20.5162 25.1351 19.9267 25.2923L20.442 27.2248ZM21.6929 27.054C21.9304 27.054 22.2289 27.0832 22.5952 27.1519L22.9638 25.1862C22.512 25.1014 22.086 25.054 21.6929 25.054V27.054ZM22.6069 27.154C22.8917 27.2039 23.175 27.3092 23.4603 27.4804L24.4893 25.7654C24.0076 25.4763 23.4941 25.279 22.9522 25.184L22.6069 27.154ZM23.4645 27.4829C23.6738 27.607 23.8791 27.8111 24.064 28.147L25.8161 27.1825C25.4896 26.5895 25.0515 26.0989 24.4852 25.7629L23.4645 27.4829ZM24.064 28.147C24.209 28.4104 24.3236 28.8463 24.3236 29.5312H26.3236C26.3236 28.6566 26.1825 27.8481 25.8161 27.1825L24.064 28.147ZM24.3236 29.5312V36H26.3236V29.5312H24.3236ZM25.3236 35H23.815V37H25.3236V35ZM24.815 36V34.6705H22.815V36H24.815ZM23.815 33.6705H23.7383V35.6705H23.815V33.6705ZM22.8368 34.2377C22.798 34.3185 22.7062 34.4576 22.5136 34.6536L23.9403 36.0552C24.225 35.7654 24.4741 35.4486 24.6399 35.1032L22.8368 34.2377ZM22.5136 34.6536C22.3867 34.7828 22.1871 34.9235 21.8794 35.0558L22.6697 36.8931C23.1546 36.6845 23.59 36.4118 23.9403 36.0552L22.5136 34.6536ZM21.8794 35.0558C21.6413 35.1582 21.3005 35.2301 20.8236 35.2301V37.2301C21.4887 37.2301 22.1152 37.1315 22.6697 36.8931L21.8794 35.0558ZM21.0537 35.875C21.7792 35.875 22.4638 35.7323 23.0593 35.3911L22.0651 33.6558C21.8424 33.7833 21.5214 33.875 21.0537 33.875V35.875ZM23.0554 35.3933C23.608 35.08 24.0586 34.6536 24.3667 34.1065L22.6241 33.125C22.5147 33.3194 22.3431 33.4981 22.069 33.6535L23.0554 35.3933ZM24.3624 34.1141C24.6585 33.5988 24.815 33.038 24.815 32.446H22.815C22.815 32.6722 22.7585 32.8912 22.6284 33.1175L24.3624 34.1141ZM24.815 32.446V31.0653H22.815V32.446H24.815ZM23.0468 30.4252C23.0968 30.3652 23.1431 30.3283 23.1691 30.3097C23.1958 30.2905 23.2131 30.2818 23.2144 30.2812C23.2163 30.2802 23.2094 30.2838 23.1907 30.2908C23.1723 30.2977 23.1462 30.3066 23.111 30.3169L23.6753 32.2356C23.8183 32.1936 23.968 32.1404 24.1088 32.07C24.2394 32.0048 24.4268 31.8932 24.5833 31.7055L23.0468 30.4252ZM23.1235 30.3133C22.9533 30.361 22.7426 30.4071 22.4873 30.4497L22.8161 32.4225C23.1233 32.3713 23.4069 32.3109 23.6628 32.2392L23.1235 30.3133ZM22.4996 30.4477C22.2302 30.4892 21.9677 30.5264 21.7119 30.5594L21.9679 32.5429C22.2405 32.5077 22.5192 32.4682 22.8037 32.4245L22.4996 30.4477ZM21.7259 30.5577C21.4633 30.5878 21.2463 30.6141 21.0766 30.6364L21.3375 32.6193C21.4917 32.599 21.6966 32.5741 21.9539 32.5446L21.7259 30.5577ZM21.0777 30.6362C20.6272 30.695 20.1964 30.7918 19.7879 30.9296L20.4274 32.8246C20.7007 32.7324 21.0029 32.6629 21.3364 32.6194L21.0777 30.6362ZM19.795 30.9273C19.3219 31.083 18.8958 31.3349 18.5552 31.7032L20.0237 33.061C20.1008 32.9776 20.2201 32.8929 20.4203 32.827L19.795 30.9273ZM18.5547 31.7038C18.1369 32.1563 17.9827 32.7257 17.9827 33.2898H19.9827C19.9827 33.1857 19.9966 33.1252 20.0067 33.0954C20.0156 33.0691 20.0227 33.062 20.0243 33.0604L18.5547 31.7038ZM17.9827 33.2898C17.9827 34.0994 18.3043 34.8226 18.9951 35.3009L20.1335 33.6565C20.0488 33.5979 19.9827 33.5284 19.9827 33.2898H17.9827ZM19.0055 35.308C19.6022 35.7101 20.3075 35.875 21.0537 35.875V33.875C20.5981 33.875 20.3105 33.7757 20.1232 33.6494L19.0055 35.308ZM30.1255 36V37H31.1255V36H30.1255ZM28.6169 36H27.6169V37H28.6169V36ZM28.6169 26.1818V25.1818H27.6169V26.1818H28.6169ZM30.0743 26.1818H31.0743V25.1818H30.0743V26.1818ZM30.0743 27.7159H29.0743V28.7159H30.0743V27.7159ZM30.2022 27.7159V28.7159H30.842L31.1101 28.135L30.2022 27.7159ZM31.2505 26.5142L31.7928 27.3544L31.7981 27.3509L31.2505 26.5142ZM34.8108 26.4631L34.3309 27.3404L34.3367 27.3435L34.8108 26.4631ZM35.9742 27.6903L35.0811 28.1403L35.0826 28.1431L35.9742 27.6903ZM36.3897 36V37H37.3897V36H36.3897ZM34.8811 36H33.8811V37H34.8811V36ZM34.2803 28.0611L33.5449 28.7388L33.5483 28.7424L34.2803 28.0611ZM31.3399 27.7223L30.8576 26.8463L30.8535 26.8486L31.3399 27.7223ZM30.4514 28.6364L29.5725 28.1595L29.5725 28.1595L30.4514 28.6364ZM29.1255 30.0938V36H31.1255V30.0938H29.1255ZM30.1255 35H28.6169V37H30.1255V35ZM29.6169 36V26.1818H27.6169V36H29.6169ZM28.6169 27.1818H30.0743V25.1818H28.6169V27.1818ZM29.0743 26.1818V27.7159H31.0743V26.1818H29.0743ZM30.0743 28.7159H30.2022V26.7159H30.0743V28.7159ZM31.1101 28.135C31.2594 27.8115 31.4807 27.5558 31.7928 27.3544L30.7082 25.674C30.0827 26.0777 29.6051 26.6232 29.2942 27.2969L31.1101 28.135ZM31.7981 27.3509C32.0592 27.18 32.4571 27.054 33.0658 27.054V25.054C32.1915 25.054 31.3793 25.2347 30.7028 25.6775L31.7981 27.3509ZM33.0658 27.054C33.5914 27.054 34.0027 27.1608 34.3309 27.3404L35.2907 25.5857C34.6218 25.2198 33.8697 25.054 33.0658 25.054V27.054ZM34.3367 27.3435C34.639 27.5063 34.8879 27.7569 35.0811 28.1403L36.8672 27.2404C36.5064 26.5243 35.9798 25.9568 35.2849 25.5826L34.3367 27.3435ZM35.0826 28.1431C35.2671 28.5066 35.3897 29.0289 35.3897 29.7614H37.3897C37.3897 28.8233 37.2352 27.965 36.8658 27.2376L35.0826 28.1431ZM35.3897 29.7614V36H37.3897V29.7614H35.3897ZM36.3897 35H34.8811V37H36.3897V35ZM35.8811 36V29.8636H33.8811V36H35.8811ZM35.8811 29.8636C35.8811 28.9206 35.6333 28.0471 35.0123 27.3798L33.5483 28.7424C33.7284 28.9359 33.8811 29.2641 33.8811 29.8636H35.8811ZM35.0156 27.3834C34.3911 26.7058 33.5539 26.4091 32.6311 26.4091V28.4091C33.1061 28.4091 33.3683 28.5471 33.5449 28.7388L35.0156 27.3834ZM32.6311 26.4091C32.0003 26.4091 31.4007 26.5473 30.8576 26.8463L31.8222 28.5983C32.0377 28.4797 32.2989 28.4091 32.6311 28.4091V26.4091ZM30.8535 26.8486C30.3022 27.1556 29.8745 27.6029 29.5725 28.1595L31.3304 29.1132C31.4631 28.8687 31.6277 28.7067 31.8264 28.596L30.8535 26.8486ZM29.5725 28.1595C29.2581 28.739 29.1255 29.3976 29.1255 30.0938H31.1255C31.1255 29.6479 31.2102 29.3349 31.3304 29.1132L29.5725 28.1595ZM39.6862 36H38.6862V37H39.6862V36ZM39.6862 26.1818V25.1818H38.6862V26.1818H39.6862ZM41.1948 26.1818H42.1948V25.1818H41.1948V26.1818ZM41.1948 36V37H42.1948V36H41.1948ZM39.6926 24.245L39.0004 24.9667L39.0077 24.9737L39.6926 24.245ZM39.6926 22.8004L39.0077 22.0718L39.0004 22.0787L39.6926 22.8004ZM41.2075 22.8004L40.5153 23.5221L40.5226 23.5291L41.2075 22.8004ZM41.2075 24.245L40.5226 23.5164L40.5153 23.5233L41.2075 24.245ZM40.6862 36V26.1818H38.6862V36H40.6862ZM39.6862 27.1818H41.1948V25.1818H39.6862V27.1818ZM40.1948 26.1818V36H42.1948V26.1818H40.1948ZM41.1948 35H39.6862V37H41.1948V35ZM40.4533 23.5455C40.4221 23.5455 40.4108 23.5406 40.4099 23.5403C40.4091 23.5399 40.3987 23.5363 40.3775 23.5164L39.0077 24.9737C39.4074 25.3493 39.9063 25.5455 40.4533 25.5455V23.5455ZM40.3848 23.5233C40.3749 23.5138 40.3712 23.5086 40.3709 23.5082C40.3708 23.508 40.3728 23.5109 40.3752 23.5164C40.3776 23.522 40.379 23.5269 40.3796 23.53C40.3801 23.5328 40.3794 23.5309 40.3794 23.5227H38.3794C38.3794 24.0851 38.6013 24.5839 39.0004 24.9667L40.3848 23.5233ZM40.3794 23.5227C40.3794 23.5146 40.3801 23.5126 40.3796 23.5155C40.379 23.5185 40.3776 23.5235 40.3752 23.529C40.3728 23.5346 40.3708 23.5374 40.3709 23.5372C40.3712 23.5369 40.3749 23.5316 40.3848 23.5221L39.0004 22.0787C38.6013 22.4615 38.3794 22.9603 38.3794 23.5227H40.3794ZM40.3775 23.5291C40.3987 23.5092 40.4091 23.5055 40.4099 23.5052C40.4108 23.5048 40.4221 23.5 40.4533 23.5V21.5C39.9063 21.5 39.4074 21.6961 39.0077 22.0718L40.3775 23.5291ZM40.4533 23.5C40.4698 23.5 40.4801 23.5014 40.4852 23.5023C40.4902 23.5033 40.4922 23.5041 40.4923 23.5041C40.4925 23.5042 40.4936 23.5046 40.4963 23.5064C40.4992 23.5082 40.5056 23.5128 40.5153 23.5221L41.8998 22.0787C41.5014 21.6967 41.0006 21.5 40.4533 21.5V23.5ZM40.5226 23.5291C40.5332 23.539 40.5373 23.5446 40.5376 23.545C40.5378 23.5452 40.5355 23.5421 40.5328 23.5359C40.53 23.5296 40.5282 23.5236 40.5274 23.5193C40.5265 23.5152 40.5271 23.5159 40.5271 23.5227H42.5271C42.5271 22.9534 42.2976 22.4526 41.8924 22.0718L40.5226 23.5291ZM40.5271 23.5227C40.5271 23.5296 40.5265 23.5302 40.5274 23.5261C40.5282 23.5218 40.53 23.5159 40.5328 23.5096C40.5355 23.5034 40.5378 23.5002 40.5376 23.5004C40.5373 23.5009 40.5332 23.5064 40.5226 23.5164L41.8924 24.9737C42.2976 24.5928 42.5271 24.092 42.5271 23.5227H40.5271ZM40.5153 23.5233C40.5056 23.5327 40.4992 23.5372 40.4963 23.5391C40.4936 23.5409 40.4925 23.5413 40.4923 23.5413C40.4922 23.5414 40.4902 23.5422 40.4852 23.5431C40.4801 23.5441 40.4698 23.5455 40.4533 23.5455V25.5455C41.0006 25.5455 41.5014 25.3488 41.8998 24.9667L40.5153 23.5233ZM45.693 35.8786L45.2672 36.7834L45.2735 36.7863L45.693 35.8786ZM44.4849 34.8494L43.6505 35.4005L43.6529 35.4041L44.4849 34.8494ZM44.3699 31.8452L45.2144 32.3807L45.2173 32.3761L44.3699 31.8452ZM46.4856 30.5668L46.6996 31.5436L46.7065 31.5421L46.4856 30.5668ZM47.8471 30.3239L47.7196 29.332L47.7174 29.3323L47.8471 30.3239ZM49.2981 30.1513L49.401 31.146L49.411 31.1449L49.2981 30.1513ZM50.1163 29.9403L49.627 29.0681L49.6178 29.0734L50.1163 29.9403ZM49.8606 27.9077L49.1448 28.606L49.1492 28.6104L49.8606 27.9077ZM46.6135 27.8565L47.224 28.6485L47.224 28.6485L46.6135 27.8565ZM45.7506 28.8665L45.4142 29.8082L46.2734 30.1151L46.6576 29.2876L45.7506 28.8665ZM44.3187 28.3551L43.3996 27.9612L42.9805 28.939L43.9824 29.2969L44.3187 28.3551ZM45.3415 26.9616L45.9565 27.7502L45.9576 27.7493L45.3415 26.9616ZM46.7477 26.2585L46.9998 27.2262L47.0054 27.2248L46.7477 26.2585ZM49.3429 26.169L49.1586 27.152L49.1703 27.154L49.3429 26.169ZM50.5382 26.6229L50.0237 27.4804L50.0279 27.4829L50.5382 26.6229ZM51.5034 27.6648L50.6273 28.147L50.6273 28.147L51.5034 27.6648ZM51.8869 36V37H52.8869V36H51.8869ZM50.3784 36H49.3784V37H50.3784V36ZM50.3784 34.6705H51.3784V33.6705H50.3784V34.6705ZM50.3017 34.6705V33.6705H49.6725L49.4002 34.2377L50.3017 34.6705ZM49.7903 35.3544L50.5037 36.0552L50.5037 36.0552L49.7903 35.3544ZM48.8379 35.9744L48.4428 35.0558L48.8379 35.9744ZM49.1256 34.5234L48.6323 33.6535L48.6284 33.6558L49.1256 34.5234ZM50.0588 33.6158L49.1917 33.1175L49.1875 33.125L50.0588 33.6158ZM50.3784 31.0653H51.3784V28.3033L49.6102 30.4252L50.3784 31.0653ZM49.9565 31.2763L50.2262 32.2393L50.2387 32.2356L49.9565 31.2763ZM49.215 31.4361L49.3671 32.4245L49.3794 32.4225L49.215 31.4361ZM48.4033 31.5511L48.5173 32.5447L48.5312 32.5429L48.4033 31.5511ZM47.7704 31.6278L47.8998 32.6194L47.9009 32.6193L47.7704 31.6278ZM46.671 31.8771L46.9836 32.827L46.9908 32.8246L46.671 31.8771ZM45.8528 32.3821L45.1186 31.7032L45.118 31.7038L45.8528 32.3821ZM46.1277 34.4787L45.5584 35.3009L45.5688 35.308L46.1277 34.4787ZM47.3869 35.2301C46.8931 35.2301 46.4739 35.1378 46.1126 34.9708L45.2735 36.7863C45.9264 37.088 46.6365 37.2301 47.3869 37.2301V35.2301ZM46.1188 34.9737C45.7692 34.8092 45.5099 34.5841 45.317 34.2947L43.6529 35.4041C44.0566 36.0096 44.6026 36.4706 45.2672 36.7834L46.1188 34.9737ZM45.3194 34.2984C45.1474 34.0379 45.0375 33.6924 45.0375 33.2131H43.0375C43.0375 34.0121 43.2259 34.7576 43.6505 35.4005L45.3194 34.2984ZM45.0375 33.2131C45.0375 32.7742 45.1247 32.5221 45.2144 32.3807L43.5254 31.3096C43.1719 31.8671 43.0375 32.5269 43.0375 33.2131H45.0375ZM45.2173 32.3761C45.3462 32.1704 45.5135 32.013 45.7337 31.894L44.7831 30.1344C44.2617 30.416 43.8368 30.8126 43.5224 31.3143L45.2173 32.3761ZM45.7337 31.894C46.0154 31.7418 46.3355 31.6234 46.6996 31.5436L46.2717 29.5899C45.7409 29.7062 45.2428 29.886 44.7831 30.1344L45.7337 31.894ZM46.7065 31.5421C47.1283 31.4466 47.5517 31.371 47.9769 31.3154L47.7174 29.3323C47.2306 29.396 46.7464 29.4824 46.2648 29.5914L46.7065 31.5421ZM47.9747 31.3157C48.5674 31.2395 49.0419 31.1831 49.401 31.146L49.1952 29.1566C48.8129 29.1961 48.3201 29.2548 47.7196 29.332L47.9747 31.3157ZM49.411 31.1449C49.8199 31.0984 50.261 31.0107 50.6148 30.8072L49.6178 29.0734C49.6362 29.0629 49.6177 29.0767 49.5343 29.0982C49.455 29.1187 49.341 29.14 49.1852 29.1577L49.411 31.1449ZM50.6056 30.8125C51.1678 30.4971 51.3784 29.9426 51.3784 29.429H49.3784C49.3784 29.4332 49.3775 29.3716 49.4229 29.2829C49.4732 29.1848 49.5512 29.1108 49.6271 29.0682L50.6056 30.8125ZM51.3784 29.429V29.3778H49.3784V29.429H51.3784ZM51.3784 29.3778C51.3784 28.5621 51.1506 27.7906 50.5721 27.2049L49.1492 28.6104C49.261 28.7236 49.3784 28.9322 49.3784 29.3778H51.3784ZM50.5764 27.2093C49.9797 26.5977 49.1561 26.3835 48.3074 26.3835V28.3835C48.8479 28.3835 49.0598 28.5188 49.1449 28.606L50.5764 27.2093ZM48.3074 26.3835C47.4517 26.3835 46.6444 26.5701 46.003 27.0645L47.224 28.6485C47.4008 28.5123 47.7227 28.3835 48.3074 28.3835V26.3835ZM46.003 27.0645C45.5046 27.4487 45.095 27.9038 44.8435 28.4454L46.6576 29.2876C46.7385 29.1132 46.9042 28.8951 47.224 28.6485L46.003 27.0645ZM46.0869 27.9247L44.6551 27.4134L43.9824 29.2969L45.4142 29.8082L46.0869 27.9247ZM45.2379 28.749C45.4404 28.2764 45.6877 27.9598 45.9565 27.7502L44.7264 26.1731C44.1429 26.6283 43.7084 27.2406 43.3996 27.9612L45.2379 28.749ZM45.9576 27.7493C46.2849 27.4933 46.6307 27.3224 46.9998 27.2262L46.4956 25.2908C45.8505 25.4589 45.2588 25.7567 44.7254 26.174L45.9576 27.7493ZM47.0054 27.2248C47.4386 27.1092 47.8548 27.054 48.2562 27.054V25.054C47.669 25.054 47.0796 25.1351 46.4901 25.2923L47.0054 27.2248ZM48.2562 27.054C48.4938 27.054 48.7922 27.0832 49.1586 27.1519L49.5272 25.1862C49.0753 25.1014 48.6494 25.054 48.2562 25.054V27.054ZM49.1703 27.154C49.455 27.2039 49.7384 27.3092 50.0237 27.4804L51.0527 25.7654C50.571 25.4763 50.0574 25.279 49.5155 25.184L49.1703 27.154ZM50.0279 27.4829C50.2371 27.607 50.4424 27.8111 50.6273 28.147L52.3794 27.1825C52.053 26.5895 51.6148 26.0989 51.0485 25.7629L50.0279 27.4829ZM50.6273 28.147C50.7723 28.4104 50.8869 28.8463 50.8869 29.5312H52.8869C52.8869 28.6566 52.7458 27.8481 52.3794 27.1825L50.6273 28.147ZM50.8869 29.5312V36H52.8869V29.5312H50.8869ZM51.8869 35H50.3784V37H51.8869V35ZM51.3784 36V34.6705H49.3784V36H51.3784ZM50.3784 33.6705H50.3017V35.6705H50.3784V33.6705ZM49.4002 34.2377C49.3614 34.3185 49.2695 34.4576 49.077 34.6536L50.5037 36.0552C50.7884 35.7654 51.0374 35.4486 51.2032 35.1032L49.4002 34.2377ZM49.077 34.6536C48.95 34.7828 48.7505 34.9235 48.4428 35.0558L49.233 36.8931C49.718 36.6845 50.1534 36.4118 50.5037 36.0552L49.077 34.6536ZM48.4428 35.0558C48.2047 35.1582 47.8638 35.2301 47.3869 35.2301V37.2301C48.0521 37.2301 48.6786 37.1315 49.233 36.8931L48.4428 35.0558ZM47.617 35.875C48.3425 35.875 49.0271 35.7323 49.6227 35.3911L48.6284 33.6558C48.4058 33.7833 48.0847 33.875 47.617 33.875V35.875ZM49.6188 35.3933C50.1713 35.08 50.622 34.6536 50.9301 34.1065L49.1875 33.125C49.078 33.3194 48.9065 33.4981 48.6323 33.6535L49.6188 35.3933ZM50.9258 34.1141C51.2219 33.5988 51.3784 33.038 51.3784 32.446H49.3784C49.3784 32.6722 49.3218 32.8912 49.1918 33.1175L50.9258 34.1141ZM51.3784 32.446V31.0653H49.3784V32.446H51.3784ZM49.6102 30.4252C49.6601 30.3652 49.7064 30.3283 49.7324 30.3097C49.7591 30.2905 49.7765 30.2818 49.7778 30.2812C49.7797 30.2802 49.7727 30.2838 49.754 30.2908C49.7357 30.2977 49.7095 30.3066 49.6744 30.3169L50.2387 32.2356C50.3817 32.1936 50.5314 32.1404 50.6722 32.07C50.8027 32.0048 50.9902 31.8932 51.1466 31.7055L49.6102 30.4252ZM49.6869 30.3133C49.5167 30.361 49.306 30.4071 49.0506 30.4497L49.3794 32.4225C49.6866 32.3713 49.9702 32.3109 50.2261 32.2392L49.6869 30.3133ZM49.063 30.4477C48.7936 30.4892 48.531 30.5264 48.2753 30.5594L48.5312 32.5429C48.8039 32.5077 49.0825 32.4682 49.3671 32.4245L49.063 30.4477ZM48.2892 30.5577C48.0266 30.5878 47.8096 30.6141 47.64 30.6364L47.9009 32.6193C48.0551 32.599 48.26 32.5741 48.5173 32.5446L48.2892 30.5577ZM47.6411 30.6362C47.1906 30.695 46.7598 30.7918 46.3512 30.9296L46.9908 32.8246C47.2641 32.7324 47.5662 32.6629 47.8998 32.6194L47.6411 30.6362ZM46.3584 30.9273C45.8853 31.083 45.4591 31.3349 45.1186 31.7032L46.5871 33.061C46.6641 32.9776 46.7835 32.8929 46.9836 32.827L46.3584 30.9273ZM45.118 31.7038C44.7003 32.1563 44.546 32.7257 44.546 33.2898H46.546C46.546 33.1857 46.56 33.1252 46.5701 33.0954C46.579 33.0691 46.5861 33.062 46.5876 33.0604L45.118 31.7038ZM44.546 33.2898C44.546 34.0994 44.8676 34.8226 45.5585 35.3009L46.6969 33.6565C46.6122 33.5979 46.546 33.5284 46.546 33.2898H44.546ZM45.5688 35.308C46.1656 35.7101 46.8709 35.875 47.617 35.875V33.875C47.1615 33.875 46.8739 33.7757 46.6865 33.6494L45.5688 35.308Z" fill="#FFFAFA" mask="url(#path-1-inside-1_1_4)"/>
</svg>
