<svg width="111" height="15" viewBox="0 0 111 15" fill="none" xmlns="http://www.w3.org/2000/svg">
<g filter="url(#filter0_i_25_2)">
<path d="M0.585227 0.909091H2.47727L6.92614 11.7756H7.07955L11.5284 0.909091H13.4205V14H11.9375V4.05398H11.8097L7.71875 14H6.28693L2.19602 4.05398H2.06818V14H0.585227V0.909091ZM20.923 14.2045C20.0366 14.2045 19.2589 13.9936 18.5899 13.5717C17.9251 13.1499 17.4052 12.5597 17.0302 11.8011C16.6595 11.0426 16.4741 10.1562 16.4741 9.14205C16.4741 8.11932 16.6595 7.22656 17.0302 6.46378C17.4052 5.70099 17.9251 5.10866 18.5899 4.68679C19.2589 4.26491 20.0366 4.05398 20.923 4.05398C21.8094 4.05398 22.5849 4.26491 23.2497 4.68679C23.9187 5.10866 24.4386 5.70099 24.8094 6.46378C25.1844 7.22656 25.3719 8.11932 25.3719 9.14205C25.3719 10.1562 25.1844 11.0426 24.8094 11.8011C24.4386 12.5597 23.9187 13.1499 23.2497 13.5717C22.5849 13.9936 21.8094 14.2045 20.923 14.2045ZM20.923 12.8494C21.5963 12.8494 22.1503 12.6768 22.5849 12.3317C23.0196 11.9865 23.3413 11.5327 23.5501 10.9702C23.7589 10.4077 23.8633 9.7983 23.8633 9.14205C23.8633 8.4858 23.7589 7.87429 23.5501 7.30753C23.3413 6.74077 23.0196 6.28267 22.5849 5.93324C22.1503 5.58381 21.5963 5.40909 20.923 5.40909C20.2497 5.40909 19.6957 5.58381 19.2611 5.93324C18.8264 6.28267 18.5047 6.74077 18.2959 7.30753C18.0871 7.87429 17.9827 8.4858 17.9827 9.14205C17.9827 9.7983 18.0871 10.4077 18.2959 10.9702C18.5047 11.5327 18.8264 11.9865 19.2611 12.3317C19.6957 12.6768 20.2497 12.8494 20.923 12.8494ZM35.8914 4.18182L32.2608 14H30.7267L27.096 4.18182H28.7323L31.4426 12.0057H31.5448L34.2551 4.18182H35.8914ZM38.4226 14V4.18182H39.9311V14H38.4226ZM39.1896 2.54545C38.8956 2.54545 38.642 2.44531 38.4289 2.24503C38.2201 2.04474 38.1157 1.80398 38.1157 1.52273C38.1157 1.24148 38.2201 1.00071 38.4289 0.800426C38.642 0.600142 38.8956 0.5 39.1896 0.5C39.4836 0.5 39.7351 0.600142 39.9439 0.800426C40.1569 1.00071 40.2635 1.24148 40.2635 1.52273C40.2635 1.80398 40.1569 2.04474 39.9439 2.24503C39.7351 2.44531 39.4836 2.54545 39.1896 2.54545ZM47.3505 14.2045C46.4045 14.2045 45.5884 13.9957 44.9024 13.5781C44.2205 13.1562 43.6943 12.5682 43.3235 11.8139C42.9571 11.0554 42.7738 10.1733 42.7738 9.16761C42.7738 8.16193 42.9571 7.27557 43.3235 6.50852C43.6943 5.73722 44.2099 5.13636 44.8704 4.70597C45.5352 4.27131 46.3107 4.05398 47.1971 4.05398C47.7085 4.05398 48.2134 4.1392 48.712 4.30966C49.2106 4.48011 49.6644 4.7571 50.0735 5.14062C50.4826 5.51989 50.8086 6.02273 51.0515 6.64915C51.2944 7.27557 51.4159 8.04687 51.4159 8.96307V9.60227H43.8477V8.2983H49.8818C49.8818 7.74432 49.771 7.25 49.5494 6.81534C49.3321 6.38068 49.021 6.03764 48.6161 5.78622C48.2156 5.5348 47.7426 5.40909 47.1971 5.40909C46.5963 5.40909 46.0764 5.55824 45.6375 5.85653C45.2028 6.15057 44.8683 6.53409 44.6339 7.0071C44.3995 7.48011 44.2823 7.98722 44.2823 8.52841V9.39773C44.2823 10.1392 44.4102 10.7678 44.6659 11.2834C44.9258 11.7947 45.2859 12.1847 45.7461 12.4531C46.2063 12.7173 46.7411 12.8494 47.3505 12.8494C47.7468 12.8494 48.1048 12.794 48.4244 12.6832C48.7482 12.5682 49.0274 12.3977 49.2617 12.1719C49.4961 11.9418 49.6772 11.6562 49.8051 11.3153L51.2625 11.7244C51.109 12.2188 50.8512 12.6534 50.489 13.0284C50.1268 13.3991 49.6794 13.6889 49.1467 13.8977C48.614 14.1023 48.0153 14.2045 47.3505 14.2045ZM61.2052 6.38068L59.85 6.7642C59.7648 6.53835 59.6391 6.31889 59.4729 6.10582C59.311 5.88849 59.0894 5.70952 58.8081 5.56889C58.5269 5.42827 58.1668 5.35795 57.7279 5.35795C57.127 5.35795 56.6263 5.49645 56.2257 5.77344C55.8294 6.04616 55.6313 6.39347 55.6313 6.81534C55.6313 7.19034 55.7677 7.48651 56.0404 7.70384C56.3131 7.92116 56.7392 8.10227 57.3188 8.24716L58.7762 8.60511C59.654 8.81818 60.3081 9.14418 60.7385 9.5831C61.1689 10.0178 61.3841 10.5781 61.3841 11.2642C61.3841 11.8267 61.2222 12.3295 60.8983 12.7727C60.5787 13.2159 60.1313 13.5653 59.556 13.821C58.9807 14.0767 58.3117 14.2045 57.5489 14.2045C56.5475 14.2045 55.7186 13.9872 55.0624 13.5526C54.4061 13.1179 53.9907 12.483 53.8159 11.6477L55.2478 11.2898C55.3841 11.8182 55.6419 12.2145 56.0212 12.4787C56.4047 12.7429 56.9054 12.875 57.5233 12.875C58.2265 12.875 58.7847 12.7259 59.198 12.4276C59.6157 12.125 59.8245 11.7628 59.8245 11.3409C59.8245 11 59.7052 10.7145 59.4665 10.4844C59.2279 10.25 58.8614 10.0753 58.3671 9.96023L56.7307 9.5767C55.8316 9.36364 55.1711 9.03338 54.7492 8.58594C54.3316 8.13423 54.1228 7.5696 54.1228 6.89205C54.1228 6.33807 54.2783 5.84801 54.5894 5.42188C54.9047 4.99574 55.333 4.66122 55.8742 4.41832C56.4196 4.17543 57.0375 4.05398 57.7279 4.05398C58.6995 4.05398 59.4623 4.26705 60.0162 4.69318C60.5745 5.11932 60.9708 5.68182 61.2052 6.38068Z" fill="black"/>
<path d="M64.3994 14V0.909091H68.8227C69.8497 0.909091 70.6892 1.09446 71.3412 1.4652C71.9975 1.83168 72.4833 2.32812 72.7986 2.95455C73.1139 3.58097 73.2716 4.27983 73.2716 5.05114C73.2716 5.82244 73.1139 6.52344 72.7986 7.15412C72.4875 7.7848 72.006 8.28764 71.354 8.66264C70.702 9.03338 69.8668 9.21875 68.8483 9.21875H65.6779V7.8125H68.7972C69.5003 7.8125 70.0649 7.69105 70.4911 7.44815C70.9172 7.20526 71.2262 6.87713 71.4179 6.46378C71.6139 6.04616 71.7119 5.57528 71.7119 5.05114C71.7119 4.52699 71.6139 4.05824 71.4179 3.64489C71.2262 3.23153 70.9151 2.90767 70.4847 2.6733C70.0543 2.43466 69.4833 2.31534 68.7716 2.31534H65.9847V14H64.3994ZM77.6692 0.909091V14H76.1607V0.909091H77.6692ZM87.1597 9.9858V4.18182H88.6682V14H87.1597V12.3381H87.0574C86.8273 12.8366 86.4693 13.2607 85.9835 13.6101C85.4977 13.9553 84.8841 14.1278 84.1426 14.1278C83.529 14.1278 82.9835 13.9936 82.5063 13.7251C82.029 13.4524 81.654 13.0433 81.3813 12.4979C81.1085 11.9482 80.9722 11.2557 80.9722 10.4205V4.18182H82.4807V10.3182C82.4807 11.0341 82.681 11.6051 83.0815 12.0312C83.4864 12.4574 84.002 12.6705 84.6284 12.6705C85.0034 12.6705 85.3848 12.5746 85.7726 12.3828C86.1646 12.1911 86.4928 11.897 86.757 11.5007C87.0254 11.1044 87.1597 10.5994 87.1597 9.9858ZM98.9257 6.38068L97.5706 6.7642C97.4854 6.53835 97.3596 6.31889 97.1935 6.10582C97.0315 5.88849 96.8099 5.70952 96.5287 5.56889C96.2474 5.42827 95.8873 5.35795 95.4484 5.35795C94.8476 5.35795 94.3469 5.49645 93.9463 5.77344C93.55 6.04616 93.3518 6.39347 93.3518 6.81534C93.3518 7.19034 93.4882 7.48651 93.7609 7.70384C94.0337 7.92116 94.4598 8.10227 95.0393 8.24716L96.4967 8.60511C97.3746 8.81818 98.0287 9.14418 98.4591 9.5831C98.8895 10.0178 99.1047 10.5781 99.1047 11.2642C99.1047 11.8267 98.9427 12.3295 98.6189 12.7727C98.2993 13.2159 97.8518 13.5653 97.2765 13.821C96.7013 14.0767 96.0322 14.2045 95.2694 14.2045C94.268 14.2045 93.4392 13.9872 92.7829 13.5526C92.1267 13.1179 91.7112 12.483 91.5365 11.6477L92.9683 11.2898C93.1047 11.8182 93.3625 12.2145 93.7417 12.4787C94.1253 12.7429 94.626 12.875 95.2439 12.875C95.947 12.875 96.5052 12.7259 96.9186 12.4276C97.3362 12.125 97.545 11.7628 97.545 11.3409C97.545 11 97.4257 10.7145 97.1871 10.4844C96.9484 10.25 96.5819 10.0753 96.0876 9.96023L94.4513 9.5767C93.5521 9.36364 92.8916 9.03338 92.4697 8.58594C92.0521 8.13423 91.8433 7.5696 91.8433 6.89205C91.8433 6.33807 91.9989 5.84801 92.3099 5.42188C92.6253 4.99574 93.0535 4.66122 93.5947 4.41832C94.1402 4.17543 94.7581 4.05398 95.4484 4.05398C96.42 4.05398 97.1828 4.26705 97.7368 4.69318C98.295 5.11932 98.6913 5.68182 98.9257 6.38068ZM105.751 13.1051V4.66761H107.182V13.1051H105.751ZM102.248 9.60227V8.17045H110.685V9.60227H102.248Z" fill="#ED1A1A"/>
</g>
<defs>
<filter id="filter0_i_25_2" x="0.585236" y="0.5" width="110.1" height="17.7046" filterUnits="userSpaceOnUse" color-interpolation-filters="sRGB">
<feFlood flood-opacity="0" result="BackgroundImageFix"/>
<feBlend mode="normal" in="SourceGraphic" in2="BackgroundImageFix" result="shape"/>
<feColorMatrix in="SourceAlpha" type="matrix" values="0 0 0 0 0 0 0 0 0 0 0 0 0 0 0 0 0 0 127 0" result="hardAlpha"/>
<feOffset dy="4"/>
<feGaussianBlur stdDeviation="2"/>
<feComposite in2="hardAlpha" operator="arithmetic" k2="-1" k3="1"/>
<feColorMatrix type="matrix" values="0 0 0 0 0 0 0 0 0 0 0 0 0 0 0 0 0 0 0.25 0"/>
<feBlend mode="normal" in2="shape" result="effect1_innerShadow_25_2"/>
</filter>
</defs>
</svg>
